# xmcd
#
# Track frame offsets:
#	150
#	10405
#	22670
#	34925
#	47846
#	59504
#	71019
#	80959
#	91383
#	104120
#	116209
#	128721
#	143868
#	154352
#	164009
#	176016
#	188606
#	200399
#	211788
#	222974
#	233061
#	243855
#	255846
#	266714
#	278288
#	290204
#	303764
#	314897
#	325036
#	335040
#
# Disc length: 4596 seconds
#
# Revision: 0
# Processed by: cddbd v1.5.2PL0 Copyright (c) Steve Scherf et al.
# Submitted via: EasyCDDAExtractor 4.6.9.1
#
DISCID=c511f21e
DTITLE=Carl Butler and The Webster Brothers - I Wouldn't Change You If I Could
DYEAR=2006
DGENRE=Country
TTITLE0=That's All Right
TTITLE1=I'll Go Steppin' Too
TTITLE2=Kisses Don't Lie
TTITLE3=I Wouldn't Change You If I Could
TTITLE4=Till The End Of The World Rolls 'Round (Webster Brothers)
TTITLE5=It's All Left Up To You (Webster Brothers)
TTITLE6=Glory Mountain (Webster Brothers)
TTITLE7=That Great Eternal Singing (Webster Brothers)
TTITLE8=Seven Years Blues
TTITLE9=Road Of Broken Hearts
TTITLE10=Looking Through The Window Of Heaven
TTITLE11=Angel Band
TTITLE12=Hallelujah, We Shall Rise
TTITLE13=Walking In God's Sunshine
TTITLE14=Your Wedding Day
TTITLE15=If I Could Spend My Heartaches
TTITLE16=It's My Sin
TTITLE17=Borrowed Love
TTITLE18=Where We Never Grow Old
TTITLE19=Somebody Touched Me
TTITLE20=Only One Heart
TTITLE21=Watching The Clock
TTITLE22=River Of Tears
TTITLE23=Cry You Fool Cry
TTITLE24=Your Cold Heart Told Me No
TTITLE25=I Know What It Means To Be Lonesome
TTITLE26=Jealous Heart
TTITLE27=Nothing I'd Rather Do
TTITLE28=So Close
TTITLE29=If You've Got The Money
EXTD=
EXTT0=
EXTT1=
EXTT2=
EXTT3=
EXTT4=
EXTT5=
EXTT6=
EXTT7=
EXTT8=
EXTT9=
EXTT10=
EXTT11=
EXTT12=
EXTT13=
EXTT14=
EXTT15=
EXTT16=
EXTT17=
EXTT18=
EXTT19=
EXTT20=
EXTT21=
EXTT22=
EXTT23=
EXTT24=
EXTT25=
EXTT26=
EXTT27=
EXTT28=
EXTT29=
PLAYORDER=
